<svg xmlns="http://www.w3.org/2000/svg" viewBox="0 0 246 246">
    <title>runetracker.io</title>
    <circle r="120" cx="123" cy="123" fill="white"/>
    <path d="M0 121.841c.113-4.431-.419 18.202 4.199 33.113 1.286 4.149 2.555 8.671 4.093 12.653 1.532 3.982 3.77 8.017 5.369 11.862 1.604 3.84 4.123 7.084 6.1 10.581 1.972 3.497 4.863 6.519 7.188 9.984 2.329 3.465 5.226 5.791 7.918 8.703 2.688 2.911 5.579 5.358 8.675 7.922 3.096 2.563 5.829 5.696 9.232 7.874 3.407 2.179 6.493 4.642 10.197 6.351 3.698 1.714 7.065 3.982 11.096 5.422 4.026 1.445 8.659 2.79 12.772 4.219 4.107 1.435 8.215 2.247 12.23 3.191 4.021.944 8.787.997 13.314 1.556 4.521.565 8.378.116 12.654.412 4.281.3 8.808-.343 13.406-.955 4.603-.612 9.068-1.566 13.282-2.637 4.22-1.071 8.726-2.284 12.742-3.724 4.01-1.445 8.153-2.822 11.913-4.578a110.336 110.336 0 0 0 11.071-5.976c3.443-2.125 6.585-4.399 9.707-6.857 3.121-2.457 6.1-4.783 9.083-7.5 2.984-2.716 5.349-5.759 8.455-8.676s4.71-6.008 7.408-9.23c2.702-3.218 4.628-6.683 6.897-10.285 2.268-3.608 4.383-6.699 6.115-10.565 1.737-3.861 3.183-7.769 4.833-11.888 1.65-4.125 2.488-9.109 3.744-13.54 1.257-4.43 1.104-10.59 1.564-15.258.46-4.673.562-9.473.475-14.283-.087-4.81-.828-10.581-1.328-14.9-.501-4.325-1.697-8.002-2.769-11.984-1.078-3.982-1.942-8.666-3.571-12.669-1.63-4.003-2.902-7.558-4.465-11.213-1.559-3.66-4.016-7.157-6.095-10.586-2.08-3.433-4.399-6.972-6.933-10.248-2.534-3.28-4.955-5.912-7.663-8.966-2.708-3.054-5.635-5.116-8.685-7.912a172.877 172.877 0 0 0-9.221-7.885c-3.203-2.542-6.417-4.51-9.937-6.619-3.525-2.105-7.075-4.157-10.82-5.707-3.745-1.556-8.297-3.344-12.46-4.541-4.164-1.198-7.873-2.801-11.986-3.45-4.112-.649-8.72-1.566-13.053-1.82C132.414.979 126.749.056 122.61.004c-4.133-.053-8.158.495-12.429.88-4.271.385-10.029 1.002-14.019 1.878-3.99.876-7.479 2.616-11.229 3.175-3.755.554-6.948 3.608-10.846 4.626-3.892 1.023-7.974 3.56-11.413 5.622-3.438 2.063-7.213 3.682-10.207 6.34-2.999 2.658-6.304 5.122-9.426 7.674-3.126 2.548-5.727 5.18-8.429 8.176-2.698 2.995-5.037 5.685-7.663 8.966-2.621 3.286-5.099 6.387-7.382 9.784-2.279 3.402-3.776 7.21-5.814 10.876-2.033 3.671-3.438 7.605-5.104 11.609-1.67 4.003-3.336 8.159-4.562 12.695-1.226 4.536-1.078 10.027-2.084 14.726C1.001 111.736.414 116.92 0 121.841m189.535-89.664c-3.54 5.744-7.867 9.6-11.878 15.164-4.01 5.564-8.266 12.337-14.294 7.11-6.028-5.227-11.27-5.269-17.881-8.967-6.61-3.697-14.927-2.753-21.85-5.395-1.962-4.294 1.65-14.162 8.011-9.325 6.355 4.836 4.935-5.981 3.739-11.245-1.195-5.264-10.115 3.207-12.772 3.692-2.988-4.425-3.136-14.13 3.423-13.002 6.555 1.129 12.548.528 18.152 2.036 5.604 1.514 11.459 2.485 16.741 4.109 5.288 1.619 10.248 4.789 15.362 6.82 5.119 2.03 8.46 6.392 13.247 9.003M69.479 63.296c-9.287-5.085-16.94-13.734-26.054-19.515 2.579-3.318 5.451-5.823 8.557-8.571 3.106-2.748 6.81-5.037 10.217-7.384 3.403-2.353 7.168-4.267 10.897-6.155 3.725-1.894 8.195-4.262 12.256-5.28 4.067-1.018 9.257-3.497 13.247-3.729 3.995-.227 10.718-3.734 14.136-1.936 3.418 1.799 1.123 9.194 2.606 12.606 1.523 3.505 1.726 13.302-.526 16.092-2.248 2.796-9.855 1.815-13.263 3.713-3.413 1.894-9.385 2.453-12.675 4.847-3.285 2.395-7.433 3.803-10.243 6.831-2.81 3.027-6.611 4.942-9.155 8.481m126.187 93.356c.72-1.223 1.676-2.959 2.043-4.219 1.845-6.277 3.479-11.604 4.087-18.46.608-6.857.792-14.843-.398-21.214-1.19-6.371-2.1-13.603-4.874-19.23-2.779-5.628-4.48-10.428-8.138-15.333-3.658-4.905-6.841-8.634-10.754-13.159-3.908-4.531 3.847-8.545 6.667-12.949 2.825-4.404 8.567-8.429 10.345-13.582 5.461.602 8.94 5.866 12.9 9.89 3.959 4.024 6.866 8.112 9.972 12.912a112.435 112.435 0 0 1 8.251 15.216c2.437 5.422 4.434 10.876 6.059 16.952 1.619 6.081 2.973 12.447 3.678 18.882.705 6.435.639 14.906.046 21.129-.593 6.219-1.262 14.151-2.983 19.595-1.727 5.443-3.52 12.268-5.901 17.115-2.386 4.847-6.039 10.844-8.649 14.805-2.616 3.956-7.275 12.047-11.153 8.613-3.877-3.434-8.496-7.801-12.603-10.723-4.102-2.927-11.531-7.067-7.832-12.041 3.704-4.969 6.677-8.734 9.237-14.199M40.87 48c1.042 6.018 7.398 9.668 11.868 13.065 4.47 3.397 12.695 7.141 7.673 12.384-5.027 5.238-7.213 9.531-9.967 15.554-2.749 6.029-5.727 12.094-6.509 18.598-.776 6.508-2.462 14.773-1.532 21.625.93 6.851 2.958 13.502 4.587 20.053 1.625 6.556 5.186 11.224 8.144 16.909 2.953 5.691 7.183 9.32 11.791 13.672-6.514 8.882-13.916 18.143-22.99 24.262-9.533-10.892-16.572-19.832-23.382-32.823-6.81-12.985-9.349-28.819-9.86-43.698-.506-14.879 1.548-32.838 7.581-45.966C24.308 68.507 29.248 56.434 40.87 48m76.632.528c1.481-.132 3.111-.222 4.598 0 34.213 1.35 69.745 32.585 71.522 69.094-2.503-.359-4.511.833-6.641 0-1.323.084-3.305.09-4.598 0-5.568.253-8.848 1.482-15.326.527-6.478-.954-8.338 5.924-1.533 6.33 6.805.406 9.227.527 15.837.527 1.41-.142 3.347-.564 5.109-.527 6.269.132 8.143 1.397 7.188 7.426-.955 6.023-1.057 9.963-2.988 14.842-1.926 4.884-3.066 8.792-5.692 12.585-2.631 3.787-4.679 6.719-7.745 9.937-3.065 3.212-5.313 6.276-8.684 8.966-3.377 2.685-7.01 5.433-10.816 7.294-3.806 1.862-8.955 2.469-10.074 7.532-1.124 5.058-5.804 5.454-9.339 8.292-3.535 2.842-8.797 3.507-13.155 3.824-4.358.316-9.078-1.73-13.324-3.123-4.24-1.398-5.982-5.628-9.538-8.086-3.556-2.452-7.683-4.615-11.484-6.603-3.801-1.988-7.48-3.956-10.969-6.609-3.484-2.653-5.533-5.744-8.966-8.676-3.428-2.933-5.502-6.409-8.199-9.995-2.698-3.587-4.302-6.894-5.865-10.823-1.558-3.935-2.866-9.621-4.195-13.603-1.328-3.977-3.274-12.046 2.039-12.125 5.313-.074 10.008-.818 14.815-.528 4.808.29 12.353.417 11.75-4.747-.602-5.163-10.365-2.505-13.282-2.637-1.364.095-3.393.527-5.109.527-5.002 0-12.976.644-11.75-5.801 1.226-6.446 1.936-9.705 3.974-14.885 2.034-5.184 3.689-8.133 6.371-12.41 2.682-4.278 5.007-7.02 8.174-10.549s5.788-6.276 9.451-9.23c3.658-2.959 6.601-5.665 10.724-7.917 4.127-2.247 8.332-4.125 12.909-5.659 4.578-1.54 9.998-3.297 14.811-3.17m62.327 131.859c7.443 7.416 17.298 12.98 24.522 21.625-21.094 20.844-48.069 31.161-76.632 33.756-1.967-8.682-1.343-16.857-1.021-25.845 7.28-.042 13.109-4.91 19.019-8.317 5.911-3.407 11.204-6.873 16.87-10.538 5.66-3.671 11.132-8.366 17.242-10.681m-61.306 47.997c.103 1.545 1.431 4.852 0 6.329-2.513 2.595-9.318-.343-12.644-.211-3.32.132-8.863-2.025-12.424-2.917-3.566-.886-8.118-2.553-11.75-3.692-3.638-1.134-7.142-3.17-10.565-4.915-3.418-1.746-6.652-3.445-9.876-5.628-3.223-2.184-6.099-3.967-9.155-6.372 2.024-4.588 7.143-10.717 10.857-14.109 3.714-3.391 7.912-12.906 12.491-8.94 4.63 4.012 15.16 11.501 20.047 12.976-.09-.003-.003.008 0 0 6.712 3.185 9.491 5.142 17.436 6.872 7.949 1.724 5.267 14.536 5.583 20.607Z"/>
    <path d="M162.97 34.287c-3.535-3.455-1.87-9.441-6.601-12.173-4.73-2.732-4.73 6.735-1.737 10.232 2.994 3.497 2.723 9.399 5.39 13.423 2.667 4.025 8.026-3.354 8.578-6.725.556-3.365 6.232-11.371 2.416-14.109-3.816-2.742-5.778 8.561-8.046 9.352Z"/>
    <path d="M75.46 26.169c2.021 3.15 3.61 7.325 2.453 8.443-2.57 2.732-5.972 9.05-1.916 13.054 3.915 3.864 5.455-6.745 5.15-10.042-.111-1.194.81-1.574 1.612-1.629 4.598.998 7.037 4.054 11.835 2.747 4.798-1.307-.148-4.291-2.645-6.98-2.502-2.684-6.405-3.543-8.424-7.216-2.025-3.668-10.64-2.391-8.065 1.623Z"/>
    <path d="M195.666 68.043c-.036 1.561-.102 3.191 0 4.747.342 5.2 5.221 8.254 9.696 8.449 4.471.201 9.278 5.233 13.166 3.023 3.887-2.21-4.225-7.891-7.188-8.139-2.963-.248-11.275-3.892-8.512-8.07 2.769-4.172 3.209-12.241-1.502-11.044-4.705 1.197-5.578 7.632-5.66 11.034Z"/>
    <path d="M116.991 59.604c-9.13-2.157-10.8 15.306-2.386 17.759 8.414 2.452 11.03-15.718 2.386-17.759Z"/>
    <path d="M38.316 71.208c5.579 1.482 4.741 5.78 10.105 8.555 5.364 2.779 7.724-2.965 2.794-6.578-4.935-3.613-5.226-4.514-9.451-8.702-4.22-4.188-6.835-2.611-8.562 3.027-1.722 5.638-1.507 9.484-3.06 15.301-1.553 5.818 3.785 10.786 5.655 4.257 1.87-6.53 1.497-9.473 2.519-15.86Z"/>
    <path d="M133.85 62.769c-7.791-.744-9.64 9.868-4.981 14.636 4.659 4.768 13.671 4.494 16.573-2.669 2.901-7.157-5.778-11.414-11.592-11.967Z"/>
    <path d="M102.175 63.296c-8.976-2.157-10.437 14.499-1.542 16.889 8.889 2.394 8.506-15.217 1.542-16.889Z"/>
    <path d="M153.774 74.9c-9.896-.032-11.694 15.037-2.084 16.382 9.609 1.35 11.78-16.351 2.084-16.382Z"/>
    <path d="M88.893 78.064c-9.068-2.204-11.986 14.114-3.066 15.823 8.92 1.709 12.098-13.629 3.066-15.823Z"/>
    <path d="M39.848 120.787c-2.518-3.302-4.822-6.182-8.301-8.835-3.474-2.653-4.414-6.825-8.951-8.154-4.536-1.335-4.741 6.656-.577 8.497 4.163 1.841 4.843 6.16 7.612 9.019-3.867 1.783-5.155 8.165-8.557 10.153-3.403 1.994-5.783 12.764.878 8.292 6.667-4.468 12.139-12.67 17.896-18.972Z"/>
    <path d="M227.851 120.259c-2.467-2.922-5.093-4.32-7.791-7.252-2.697-2.938-5.512-3.233-7.918-6.593-2.412-3.355-8.537-.464-5.109 3.165 3.423 3.634 3.581 4.029 7.408 7.12 3.831 3.091 1.353 5.897-3.847 5.786-5.201-.111-3.862 4.583-.751 6.872 3.111 2.29 4.327 5.238 7.75 6.767 3.423 1.535 5.17 4.8 7.193 7.342 4.654-.543 4.082-6.498 1.916-8.307-2.161-1.814-6.928-5.343-6.131-7.648.802-2.304 7.122-3.723 7.28-7.252Z"/>
    <path d="M161.437 145.049c-6.468-1.308-6.519 6.471-1.916 8.307 4.603 1.83 4.941 5.928 9.579 7.516 4.639 1.582 7.229-7.928 2.912-9.336-4.322-1.403-6.447-5.649-10.575-6.487Z"/>
    <path d="M71.012 158.762c2.278 4.13 7.873 3.908 9.86.158 1.992-3.75 8.537-3.787 7.903-8.476-.633-4.689-8.378-4.414-10.228-.78-1.849 3.634-8.072 4.077-7.535 9.098Z"/>
    <path d="M39.338 151.905c-4.067-.58-4.154 9.405-4.087 12.659.066 3.254 1.849 10.522 2.559 13.708.705 3.186.455 10.259 4.577 9.483 4.128-.77 2.427-8.201 2.054-11.582-.368-3.386-1.011-9.125-2.038-12.137-1.027-3.011.904-11.566-3.065-12.131Z"/>
    <path d="M197.709 156.652c1.891 2.659 9.411 9.204 5.748 11.208-3.668 2.005-10.335 8.603-2.682 9.362.654-.01 2.212-.849 3.065-1.055.567 1.272 2.023 1.91 2.554 3.165 1.16 2.062 2.703 4.241 5.109 4.747 6.739-2.685-2.125-7.458-3.065-11.076 4.393-.696 5.052-5.638 9.323-6.725 4.276-1.081 3.837-9.314-.521-8.449-4.363.864-5.711 6.65-8.93 2.12-3.218-4.536-4.577-5.739-9.068-6.461-.572.279-1.543 2.806-1.533 3.164Z"/>
    <path d="M165.895 203.235c5.354.807 9.078.058 14.299 2.115 5.221 2.057 8.322-3.144 3.428-5.122-4.899-1.972-7.065-4.378-12.097-3.84-5.027.544-7.837 2.152-12.782 2.1-3.505 3.702-.777 7.985 2.682 10.944 3.453 2.959 3.244 8.397 6.161 11.572 2.912 3.18 9.134-4.968 5.42-7.706-3.714-2.737-5.17-6.356-7.111-10.063Z"/>
    <path d="M148.217 216.504c-3.893-1.503-6.34 3.855-2.667 6.445 3.673 2.59 6.386-5.005 2.667-6.445Z"/>
    <path d="M93.101 111.889c.164 14.37 10.504 54.291 10.504 54.291a146.47 146.47 0 0 0 3.036 16.109c1.251 5.011 3.488 8.767 7.429 12.005 3.94 3.238 10.617 3.333 15.061 2.46 4.443-.878 8.566-3.619 11.291-7.539 2.726-3.915 2.725-23.909 3.541-28.705 2.227-13.092 13.176-40.065 7.797-54.361-5.373-14.301-17.936-19.957-32.031-20.56-14.095-.604-26.799 11.698-26.628 26.3Z"/>
    <path d="M87.435 210.59c1.852-.603 5.649-1.601 6.288-3.503.597-1.776-.133-2.848-2.183-3.338-3.667-.257-5.796.502-9.389 1.909-3.598 1.403-5.45 2.399-8.23 5.597-2.781 3.197-.856 6.341 2.983 4.329 3.838-2.007 3.503 3.074 6.056 6.043 2.559 2.965 7.219.234 3.553-3.428-3.665-3.661-2.658-6.439.922-7.609Z"/>
</svg>
