<svg xmlns="http://www.w3.org/2000/svg" viewBox="0 0 814 79">
  <title>runetracker.io</title>
  <rect width="100%" height="100%" fill="white"/>
  <path d="M799.313 77.316c3.165.39 8.13.645 11.25 0h3c-2.407-8.46-6.082-13.028-12.187-20.063-6.098-7.035 4.702-8.88 7.852-16.522 3.158-7.643 3.315-18.998-1.44-26.64-4.747-7.65-10.147-10.485-19.672-11.828-9.518-1.35-17.25.368-27.803-.697-10.552-1.058-9.525 10.77-9.487 19.732.045 8.955.562 16.598.487 24.518-.075 7.92-.397 22.515.75 30.75 3.233-.465 12.57 3.022 15.165-.585 2.595-3.6-.18-11.655.585-16.665.765-5.01 7.703-3.953 12.75-3.75 6.503 6.622 8.588 19.23 18.75 21.75m-28.5-61.5c3.975-.99 11.483.315 16.5.75 5.018.435 8.355 8.565 7.5 13.5-.855 4.935-6.157 8.812-11.25 9-5.1.187-17.52 1.215-15.75-5.25 1.77-6.465-3.825-16.298 3-18Z"/>
  <path d="M719.063 31.566c-3.51.337-7.815.262-11.25 0-10.335 3.555-8.43-8.048-8.25-15 5.918-1.185 15.195 2.557 18.75-2.25 3.083 2.317 14.918 4.747 18.938 1.687 4.02-3.067 2.265-15.202-4.688-13.687-6.952 1.515-13.927-.225-21 0-7.072.225-10.132.547-17.25-.75-7.117-1.298-11.88 1.62-11.407 8.827.465 7.208.127 10.823.157 18.173.03 7.35-.195 11.467-.75 18.75-.555 7.282 1.238 11.655 0 18-1.237 6.345 1.5 13.41 9 12 7.5-1.41 14.745.39 21.75 0 7.005-.39 14.46-.383 20.835-.165 6.375.217 8.385-11.048 4.08-14.25-4.305-3.203-13.642 1.005-18.915-.585-5.272-1.59-14.362 1.567-19.5 0-.937-5.085.945-9.975-.75-15 7.178-1.043 13.59-.555 21-.75 7.403-.188 14.43 2.512 14.25-7.5-.18-10.013-6.622-7.5-15-7.5Z"/>
  <path d="M668.813 2.316c-7.027-2.055-20.587-3.615-21 6-4.905.075-7.027 8.565-11.062 12.187-4.035 3.623-6.42 10.913-11.438 12.563-1.92-6.675.053-12.63 0-19.5-.052-6.863 1.35-11.318-6.75-12-8.1-.683-12.247 2.04-11.25 9.75.998 7.71-1.297 11.955.165 18.585 1.463 6.63.075 9.112.098 15.397.03 6.278.255 11.108.487 17.768.233 6.66-3.157 13.845 5.25 14.25 8.408.405 12.263-.54 11.25-9-1.012-8.46.758-12.218 0-20.25 6.885 7.042 12.51 11.992 19.313 19.687 6.81 7.695 16.942 13.08 27.937 8.813-2.025-6.015-5.872-10.65-10.687-15.563-4.815-4.92-7.463-7.995-13.5-12.75-6.03-4.762-5.835-10.222-.75-15.375 5.085-5.152 7.65-9.09 11.962-14.287 4.305-5.205 7.5-10.29 9.975-16.275Z"/>
  <path d="M558.563 14.316c9.233.187 15.773 4.155 22.313 10.687 6.547 6.525 18.817-4.132 12.127-10.627-6.697-6.495-10.837-10.973-20.025-12.225-9.187-1.253-19.912-1.83-27.742 2.587-7.83 4.418-11.078 9.518-15.983 16.268-4.897 6.757-5.317 20.085-3.667 27.787 1.642 7.71 5.587 12.87 11.415 19.335 5.82 6.473 14.497 9.51 23.062 9.938 8.565.427 19.62-1.32 26.063-6.938 6.45-5.617 14.392-10.59 4.747-17.122-9.645-6.525-11.13 5.047-19.56 7.56-8.422 2.52-19.012.93-24.525-6.225-5.505-7.163-6.045-15.87-3.472-24.023 2.58-8.145 9.6-11.97 15.247-17.002Z"/>
  <path d="M449.813 77.316c2.438.54 5.745.052 8.25 0 8.655 1.32 8.085-9.555 12.173-14.828 4.087-5.272 3.352-14.017 6.637-19.612 3.278-5.603 3.855-14.318 8.94-17.31 3.413 4.897 2.985 12.067 6.165 17.835 3.188 5.767 3.3 12.907 7.5 18 4.208 5.085 2.708 12.157 8.828 15.922 6.12 3.765 16.95-1.387 12.742-8.242-4.215-6.848-4.305-11.423-8.002-17.498-3.705-6.067-3.788-11.572-7.793-16.957-4.005-5.378-3.525-13.103-7.462-18.038-3.938-4.935-1.755-10.98-8.063-15.187-6.307-4.208-14.055 2.835-15.225 9.105-1.162 6.277-5.902 11.167-7.5 16.5-1.59 5.332-5.212 12.412-7.207 17.542-2.003 5.123-6.698 12.855-7.785 17.715-1.088 4.853-8.595 12.69-2.198 15.053Z"/>
  <path d="M428.813 77.316c3.21.36 8.1.652 11.25 0h3c-1.71-9.975-11.092-16.11-15.75-24.75 4.455-3.743 7.305-6.09 10.688-11.063 3.375-4.98 2.962-12.217 2.062-18.187-.9-5.97-2.872-10.515-7.312-14.438-4.448-3.915-9.285-6.105-15.135-6.615-5.843-.517-13.208-1.35-18.803-.697-5.595.652-14.437-2.363-17.767 2.482-3.338 4.838.9 11.85-.983 17.768-1.882 5.917 1.62 13.972 1.335 20.085-.285 6.112-.63 14.407-.585 21.165.045 6.757-1.372 14.332 6.75 14.25 8.115-.083 12.93-3.248 9.75-12-3.18-8.753 5.813-12.675 11.813-9.563 6 3.105 5.235 8.01 8.61 11.64 3.375 3.63 5.932 8.723 11.077 9.923m-30-61.5c5.355.892 11.543-.293 17.25.75 5.708 1.042 7.868 6.817 8.235 12.022.368 5.198-6.232 10.83-11.235 10.478-5.01-.36-18.105 2.347-16.5-5.25 1.605-7.598-1.552-11.798 2.25-18Z"/>
  <path d="M359.063 18.066c1.988-.195 5.055-.563 7.5-.75 6.188 1.59 9.533-14.213 2.25-15-7.282-.788-16.657 1.027-24.75 0-8.092-1.028-14.242 2.205-21.75 0-7.507-2.205-12.727 6.937-8.19 13.44 4.545 6.502 13.658-1.65 19.44 2.31 2.093 19.035-.397 39.6 1.5 58.5 4.943 1.485 10.508.435 15.75.75 2.963-7.013.353-12.203 1.5-18.75 1.148-6.548-.99-13.92-.75-20.25s1.073-13.718.75-20.25h6.75Z"/>
  <path d="M271.313 14.316c2.19 4.537 12.098 1.485 16.493 2.242 4.402.758 6.105-10.935 2.812-13.297-3.285-2.37-12.172-.803-17.055-.945-4.882-.143-11.715-.615-16.747-.248-5.033.368-7.935.713-14.25 0-6.308-.712-7.523 3.203-7.253 9.248.27 6.045.45 11.812.698 17.197.24 5.378-1.08 12.008-.698 17.303.383 5.295-.172 13.312.833 16.582 1.005 3.27-4.14 13.23 1.417 14.918 5.558 1.687 12.233-.803 18 0 5.768.802 12.173-.458 18 0 5.828.457 11.655-.188 17.25-.75-.555-4.77 7.125-14.438-3.75-14.25-10.875.187-23.677.27-34.5 0-.945-5.685.233-10.26-.75-15.75 10.5 1.552 17.378-1.418 27.75 0 10.373 1.417 10.493-16.71 0-15-10.492 1.71-17.287.075-27 0v-15c6.008-1.133 14.52 2.49 18.75-2.25Z"/>
  <path d="M201.563 43.566c-2.407-4.763-7.072-9.165-10.312-13.688-3.233-4.522-7.305-8.235-10.748-12.502-3.45-4.268-7.717-8.145-10.627-12.623-2.903-4.485-14.978-7.012-16.313-.187-1.335 6.825.405 16.222 0 23.25-.405 7.027-.247 16.5 0 23.25.248 6.75-1.035 18.157.06 23.94 1.103 5.775 17.753 3.397 17.19-1.44-.562-4.838 2.048-16.418-3-18.75 5.13.247 1.665-6.158 2.303-9.698.637-3.532.112-9.015-.803-12.802 5.865.51 6.533 7.612 11.063 11.437 4.53 3.825 8.062 8.393 11.497 13.253 3.435 4.86 8.378 8.205 10.628 14.122 2.25 5.925 11.527 8.243 17.062 6.188.96-11.67-.225-22.56 0-34.5.225-11.94-.727-22.613-.247-33.998.48-11.385-19.035-11.347-17.003.248 2.033 11.595-.48 24.39-.75 34.5Z"/>
  <path d="M119.063 60.066c-6.54 2.347-10.245 3.682-17.497 2.497-7.253-1.185-10.613-7.095-11.003-14.497-.39-7.403-.007-14.235-.75-21-.742-6.765 2.73-19.373-.945-24.555-3.667-5.183-18.067-.855-15.555 6.555 2.513 7.41-1.455 13.89-.735 20.985.728 7.095.113 15.682 1.485 22.515 1.373 6.832 2.775 12.742 8.19 17.31 5.408 4.567 9.795 6.81 16.553 8.197 6.757 1.388 15.645-.03 21.735-2.28 6.097-2.242 9.937-6.382 13.582-11.917 3.638-5.543 5.573-12.225 5.19-19.56-.382-7.335-.96-16.733-.75-24.75.21-8.018 2.595-17.603-7.5-18-10.095-.398-11.175 5.64-10.447 14.197.735 8.55.225 15.068.697 23.303.473 8.235-1.297 14.115-2.25 21Z"/>
  <path d="M49.313 77.316c3.165.352 7.35.427 10.5 0 7.538-.878-1.312-9.308-3.81-13.44-2.497-4.133-11.242-9.818-5.377-13.748 5.865-3.93 8.437-8.895 9.945-14.805 1.507-5.91.285-13.935-2.423-19.342-2.715-5.4-6.412-10.373-12.585-12.165-6.165-1.793-14.67-3.353-21.247-2.003-6.578 1.35-15.293-2.985-20.978.278-5.685 3.27-1.725 15.097-2.775 21.975-1.05 6.877 1.328 14.632 0 21.75-1.327 7.117 1.47 15.277 0 23.25-1.47 7.965 8.888 10.185 15.75 7.5 4.658-5.265-3.217-17.153 3-21 6.218-3.848 15.233 4.29 17.708 9.187 2.467 4.898 5.79 11.048 12.292 12.563m-28.5-61.5c4.043-.81 11.933-.315 17.003.997 5.07 1.313 7.207 8.205 5.662 14.168-1.545 5.962-7.14 7.65-13.665 8.085-6.525.435-15.135-.578-12.015-7.515 3.12-6.938-5.812-13.973 3.015-15.735Z"/>
</svg>
